<?xml version="1.0" standalone="no"?>
<!DOCTYPE svg PUBLIC "-//W3C//DTD SVG 20010904//EN"
 "http://www.w3.org/TR/2001/REC-SVG-20010904/DTD/svg10.dtd">
<svg version="1.0" xmlns="http://www.w3.org/2000/svg"
 width="1989.000000pt" height="1191.000000pt" viewBox="0 0 1989.000000 1191.000000"
 preserveAspectRatio="none meet">
<metadata>
Created by potrace 1.16, written by Peter Selinger 2001-2019
</metadata>
<g transform="translate(0.000000,1191.000000) scale(0.100000,-0.100000)"
fill="#000000" stroke="none">
<path d="M2297 9910 c-23 -75 -33 -170 -19 -170 5 0 15 -19 22 -42 8 -24 22
-61 32 -84 14 -32 18 -74 20 -190 3 -129 6 -154 22 -179 17 -25 21 -53 24
-170 l4 -140 -29 -37 c-34 -45 -106 -81 -276 -138 -93 -31 -136 -51 -155 -72
-23 -24 -34 -28 -83 -28 -117 0 -328 -66 -369 -115 -7 -8 -18 -15 -24 -15 -20
0 -127 -124 -151 -175 -13 -27 -35 -94 -49 -149 -15 -54 -31 -107 -37 -117
-17 -32 -12 -121 12 -202 l22 -77 -21 -23 c-43 -45 -64 -132 -67 -267 -2 -69
-8 -138 -14 -153 -13 -34 -14 -77 -2 -77 13 0 21 -27 14 -46 -3 -8 -12 -13
-21 -9 -18 7 -52 -22 -52 -45 0 -9 -7 -25 -15 -36 -8 -10 -15 -25 -15 -32 0
-7 -16 -30 -35 -50 -19 -20 -35 -43 -35 -49 0 -18 27 -16 34 2 3 8 12 15 20
15 8 0 26 14 39 30 14 17 28 30 30 30 12 0 13 -41 1 -51 -8 -6 -14 -22 -14
-35 0 -36 27 -19 34 22 4 20 13 34 22 34 8 0 23 15 33 33 22 37 54 77 61 77
14 0 1 -52 -17 -73 -11 -12 -25 -31 -31 -43 -10 -19 -8 -20 20 -16 48 7 121
93 103 122 -3 4 2 21 10 36 12 25 15 26 21 10 4 -10 2 -27 -4 -37 -28 -44 1
-71 38 -37 l22 21 -3 -121 c-4 -130 3 -142 39 -71 15 29 16 42 7 68 -12 38 -8
121 6 100 5 -8 9 -32 9 -54 0 -30 3 -36 10 -25 9 13 14 7 11 -12 0 -5 3 -8 8
-8 6 0 9 -18 8 -40 -2 -48 15 -54 25 -8 3 18 17 42 30 53 13 11 37 40 53 64
16 24 35 46 42 48 12 5 57 93 84 161 5 12 13 22 19 22 5 0 10 8 10 18 1 9 9
32 19 51 l18 33 19 -24 c10 -13 27 -27 37 -31 9 -4 20 -14 24 -23 7 -20 64
-73 77 -74 12 0 91 -65 138 -112 21 -22 42 -56 48 -80 7 -22 18 -48 27 -56 12
-13 14 -40 12 -159 -3 -89 0 -143 6 -143 6 0 9 31 8 73 -1 39 1 61 3 47 9 -47
14 -54 26 -42 10 10 20 4 45 -25 18 -20 33 -40 33 -45 0 -4 5 -8 11 -8 5 0 7
6 2 12 -11 19 -21 108 -11 108 4 0 8 -7 8 -16 0 -9 9 -27 20 -41 11 -14 20
-34 20 -44 0 -9 7 -25 16 -33 20 -21 54 -21 54 0 0 16 16 14 65 -5 11 -5 38
-14 60 -21 22 -7 48 -19 58 -28 15 -14 17 -13 17 2 0 10 -5 26 -10 37 -12 21
-1 26 18 7 7 -7 12 -8 12 -2 0 21 -23 90 -35 104 -7 8 -15 30 -19 49 -3 19
-12 39 -19 45 -13 11 -40 86 -51 141 l-6 30 20 -24 c11 -13 20 -33 20 -46 0
-12 7 -28 15 -35 8 -7 15 -19 15 -26 0 -8 9 -33 19 -57 11 -23 22 -53 25 -67
5 -26 34 -62 60 -77 7 -4 27 -30 44 -56 26 -41 122 -127 142 -127 7 0 105 50
138 71 13 8 33 35 44 62 11 26 24 47 29 47 13 0 11 -9 -6 -26 -8 -9 -15 -20
-15 -25 0 -12 37 -12 44 0 3 5 17 11 30 13 19 4 23 1 18 -10 -4 -12 -1 -14 14
-8 10 5 26 8 34 9 25 0 40 18 40 49 0 42 27 143 51 186 10 20 19 48 19 62 0
15 11 48 25 76 15 28 24 38 21 24 -14 -68 -36 -193 -47 -260 -6 -41 -15 -77
-20 -80 -4 -3 0 -11 10 -17 15 -9 26 -8 54 7 19 10 38 16 42 12 4 -4 4 34 1
83 -3 50 -8 157 -12 238 l-6 149 33 34 c18 19 36 34 41 34 20 0 52 -41 80
-100 16 -36 33 -67 37 -70 4 -3 21 -28 39 -56 28 -45 32 -59 33 -125 0 -51 3
-68 9 -54 6 13 9 15 9 5 1 -13 2 -13 11 0 5 8 10 23 10 33 0 10 6 25 14 32 12
12 16 10 27 -17 9 -23 10 -35 1 -49 -17 -27 -14 -48 3 -25 8 11 15 16 15 11 0
-5 7 0 15 12 9 12 17 52 19 95 5 84 15 128 27 128 5 0 9 18 9 40 0 22 5 40 10
40 6 0 10 11 10 24 0 14 3 27 8 30 4 2 7 -15 7 -40 0 -24 -3 -44 -8 -44 -4 0
-5 -11 -1 -24 4 -16 1 -25 -10 -29 -12 -5 -16 -21 -16 -66 0 -33 -4 -63 -10
-66 -15 -9 -12 -42 4 -48 8 -3 20 1 26 8 7 8 16 12 21 9 13 -8 16 46 5 92 -5
18 -3 24 5 18 13 -7 9 46 -6 80 -6 13 -5 17 3 12 6 -3 13 -2 17 4 3 5 11 10
16 10 6 0 7 -5 3 -11 -12 -20 -6 -72 10 -81 9 -5 20 -26 25 -46 6 -21 17 -46
25 -57 14 -19 15 -16 16 31 0 34 -5 56 -15 64 -8 7 -15 19 -15 28 0 8 -7 24
-17 34 -9 10 -11 18 -5 18 6 0 12 -6 15 -12 2 -7 8 -10 12 -6 10 10 -27 68
-43 68 -11 0 -12 3 -3 14 9 11 4 23 -24 56 -19 23 -35 45 -35 48 0 4 12 -8 26
-25 32 -42 42 -41 50 2 11 58 26 53 21 -6 -3 -30 -8 -62 -12 -71 -4 -10 -3
-18 3 -18 6 0 14 -9 17 -20 4 -11 11 -18 16 -15 5 4 9 -2 9 -13 0 -22 46 -48
53 -29 3 9 8 9 20 -2 15 -12 17 -11 17 12 0 13 -7 30 -15 37 -8 7 -17 27 -21
46 -3 19 -12 38 -19 42 -30 18 -36 53 -33 206 2 125 0 157 -12 172 -48 60 -61
140 -37 225 14 47 14 65 3 141 -7 48 -17 93 -23 100 -6 7 -13 24 -16 38 -14
65 -59 166 -83 188 -14 14 -30 37 -36 53 -5 15 -21 35 -35 45 -15 9 -45 34
-69 56 -53 49 -146 86 -249 99 -103 13 -249 83 -297 141 -17 21 -35 38 -41 38
-5 0 -29 16 -53 35 -23 19 -47 35 -53 35 -9 0 -15 28 -13 60 2 35 13 73 26 85
8 9 20 35 26 58 6 23 15 50 20 59 6 10 10 34 10 53 0 25 8 43 28 62 16 16 34
47 40 69 7 23 19 47 27 54 8 7 15 23 15 36 0 13 11 49 25 80 20 46 25 72 25
144 0 60 -4 90 -12 92 -7 3 -17 28 -23 57 -13 65 -31 67 -27 3 7 -118 2 -222
-14 -263 -37 -102 -42 -113 -50 -116 -5 -2 -9 53 -10 122 -1 118 -2 127 -28
163 -14 21 -37 48 -49 60 -12 12 -33 33 -47 47 -48 49 -85 59 -215 60 -76 0
-134 -5 -158 -13 -69 -25 -142 -111 -153 -183 -9 -52 -21 -58 -30 -15 -3 20
-12 40 -20 47 -7 6 -16 27 -20 48 -4 20 -14 50 -24 66 -9 17 -18 53 -19 80 -3
56 -16 91 -24 65z m634 -1516 c-12 -21 -21 -43 -21 -47 0 -5 -11 -18 -25 -29
-14 -11 -25 -27 -25 -37 0 -9 -6 -23 -12 -30 -11 -11 -5 -12 32 -5 25 4 54 8
64 9 11 1 21 6 23 12 3 8 -8 8 -34 2 -69 -16 -81 -7 -42 32 14 14 27 18 42 13
32 -10 97 -78 97 -102 0 -12 5 -24 10 -27 14 -8 13 -95 -2 -153 -8 -36 -25
-61 -69 -104 -31 -32 -62 -58 -69 -58 -6 0 -18 -7 -26 -15 -14 -14 -114 -23
-114 -10 0 8 130 135 138 135 11 0 56 70 49 76 -7 8 -37 -21 -37 -35 0 -6 -4
-11 -9 -11 -6 0 -60 -49 -122 -110 -62 -60 -116 -110 -121 -110 -14 0 -9 12
17 36 14 13 25 25 25 28 0 11 65 102 87 121 37 33 27 35 -38 9 -34 -14 -64
-22 -68 -18 -3 4 0 9 7 11 6 3 12 9 12 14 0 5 18 39 40 75 22 36 40 70 40 74
0 4 7 10 15 14 8 3 15 10 15 16 0 13 -57 13 -65 0 -8 -13 -45 -13 -45 0 0 5 6
13 13 17 8 4 18 16 24 26 5 10 36 47 69 82 32 35 70 78 84 94 14 17 31 31 38
31 6 0 12 5 12 12 0 6 3 9 6 6 3 -3 -4 -23 -15 -44z m-111 -59 c0 -9 -8 -19
-19 -23 -10 -4 -38 -32 -62 -62 -24 -30 -54 -65 -66 -76 -13 -12 -23 -24 -23
-28 0 -9 50 -7 88 3 17 5 32 7 32 3 0 -4 -16 -32 -35 -62 -19 -30 -35 -60 -35
-67 0 -7 -3 -13 -7 -13 -9 0 -46 -61 -40 -66 2 -2 20 2 40 8 20 6 40 9 43 6 3
-4 -5 -22 -18 -42 -26 -40 -42 -40 -88 0 -15 14 -34 30 -43 37 -9 6 -24 42
-34 78 -16 62 -16 69 1 139 20 82 59 133 111 146 17 4 35 10 40 14 14 11 44
17 83 19 23 1 32 -3 32 -14z"/>
<path d="M1054 6873 c-13 -3 -27 -19 -38 -43 -9 -21 -35 -61 -56 -88 -22 -27
-40 -57 -40 -66 0 -9 -9 -24 -20 -33 -11 -10 -20 -22 -20 -28 0 -6 -9 -16 -20
-23 -20 -12 -20 -12 0 -47 24 -42 25 -56 5 -49 -8 4 -12 10 -9 15 3 5 3 9 0 9
-2 0 -12 3 -22 7 -15 5 -16 1 -10 -41 4 -26 10 -58 12 -69 3 -12 5 -50 5 -84
-1 -35 4 -63 9 -63 6 0 10 -8 10 -17 0 -15 2 -14 15 3 8 10 14 33 15 49 0 17
9 48 20 70 10 22 22 52 25 67 3 15 11 33 19 41 8 8 20 33 26 56 6 23 17 44 24
47 8 3 17 26 21 52 3 26 11 62 18 80 11 33 27 43 27 17 0 -8 -4 -15 -9 -15 -5
0 -11 -13 -13 -30 -3 -16 -1 -30 4 -30 4 0 8 8 9 18 0 15 1 14 8 -2 7 -19 8
-18 14 4 3 13 9 21 13 18 8 -8 -26 -98 -37 -98 -12 0 -32 -79 -26 -101 6 -22
-10 -35 -35 -31 -10 2 -18 -3 -18 -10 0 -7 -9 -29 -19 -49 -11 -20 -22 -60
-26 -90 -4 -30 -10 -74 -15 -99 -5 -24 -7 -47 -5 -51 2 -3 -2 -23 -9 -45 -11
-30 -11 -51 -3 -92 9 -43 9 -55 -2 -61 -8 -5 -16 -39 -21 -82 -4 -43 -16 -91
-28 -114 -12 -22 -29 -76 -37 -120 -9 -44 -18 -87 -20 -95 -2 -8 -4 -22 -5
-30 -1 -11 -3 -10 -9 4 -7 17 -8 17 -24 -7 -9 -13 -19 -48 -23 -76 -6 -45 -5
-51 10 -45 9 3 16 10 16 16 0 5 4 7 9 4 10 -6 46 82 37 91 -3 4 1 18 11 32 9
14 18 43 21 64 2 22 11 56 19 76 14 32 17 34 24 16 7 -18 8 -17 8 7 1 15 6 30
11 33 14 9 12 -13 -5 -60 -8 -22 -14 -53 -15 -68 0 -15 -9 -47 -21 -70 -11
-23 -22 -61 -24 -84 -2 -24 -11 -50 -19 -59 -9 -8 -16 -23 -16 -32 0 -13 4
-12 19 7 l19 24 7 -22 c4 -12 4 -25 1 -28 -3 -4 -6 0 -6 8 -1 31 -29 -54 -39
-119 -14 -89 -14 -229 -1 -237 6 -3 10 -20 10 -36 0 -38 16 -69 35 -69 12 0
15 19 15 105 0 57 -5 115 -11 129 -14 30 -4 69 12 46 6 -10 8 17 4 80 -4 75
-3 89 6 67 6 -15 15 -25 20 -21 5 3 9 1 9 -5 0 -5 -5 -13 -10 -16 -15 -9 -11
-105 5 -140 l13 -30 2 45 2 45 13 -50 c6 -27 22 -75 35 -105 12 -30 26 -64 30
-75 26 -62 50 -160 50 -201 l0 -47 24 28 c17 19 29 52 37 97 11 63 10 73 -12
137 -13 39 -25 68 -28 65 -3 -2 -11 10 -18 27 -9 22 -13 82 -13 196 0 107 -3
162 -10 158 -14 -9 -12 13 5 60 13 36 15 38 21 18 3 -13 9 -23 13 -23 3 0 19
24 35 54 22 40 27 61 23 85 -7 34 -45 123 -57 131 -4 3 -11 19 -16 35 l-8 30
-4 -33 c-6 -55 -22 -25 -22 42 0 34 -7 83 -16 109 -16 47 -16 105 0 62 20 -53
26 -65 36 -65 5 0 10 18 10 39 0 22 7 46 15 55 8 8 15 30 15 48 0 25 3 29 10
18 20 -31 9 -93 -30 -172 -11 -24 -10 -31 6 -55 10 -15 25 -42 34 -59 19 -36
35 -57 73 -92 15 -15 27 -36 27 -47 0 -12 7 -30 15 -41 8 -10 15 -27 15 -36 0
-9 11 -25 25 -36 14 -11 25 -25 25 -31 0 -27 70 -135 107 -164 13 -10 23 -25
23 -33 0 -15 -44 27 -87 83 -14 18 -28 32 -31 31 -4 -1 -24 1 -44 5 -33 7 -38
12 -38 35 0 22 -2 24 -11 12 -7 -11 -8 -6 -4 20 5 30 2 39 -25 63 -26 25 -30
26 -30 10 0 -43 24 -138 37 -146 7 -4 13 -15 13 -24 0 -11 4 -13 13 -5 19 15
77 3 77 -17 0 -9 7 -25 15 -35 8 -11 15 -34 15 -52 0 -34 17 -55 29 -36 4 8
16 4 33 -11 14 -12 37 -31 50 -42 12 -10 30 -20 38 -21 8 -1 26 -5 40 -9 23
-5 23 -5 6 7 -53 37 -66 51 -66 73 0 13 -5 25 -12 27 -8 3 -8 9 -1 23 9 15 6
30 -13 68 -14 26 -31 50 -39 54 -8 3 -15 15 -15 27 0 12 -9 38 -19 59 -10 20
-22 47 -25 59 -3 13 -22 41 -41 63 -20 22 -40 56 -45 76 -6 20 -17 42 -25 49
-8 7 -18 34 -21 61 -4 27 -11 52 -15 55 -5 3 -9 21 -9 40 0 28 4 34 18 32 27
-5 30 48 3 57 -12 3 -21 14 -22 23 0 9 -3 29 -5 45 -4 23 -1 27 21 27 14 0 25
-6 25 -12 0 -7 9 1 20 17 11 17 20 40 20 52 0 13 9 28 20 35 21 13 29 68 10
68 -5 0 -10 15 -10 34 0 19 5 38 10 41 12 7 13 41 3 48 -5 2 -2 2 5 1 7 -2 19
11 26 29 14 30 14 31 16 7 1 -22 3 -21 21 15 20 41 27 93 15 113 -7 11 21 45
32 38 4 -2 7 6 8 17 0 12 3 47 7 77 4 31 3 61 -2 70 -16 23 -61 -36 -61 -79 0
-28 -9 -43 -46 -78 -33 -31 -50 -40 -59 -33 -6 5 -14 7 -18 4 -3 -3 -8 4 -12
16 -9 28 3 110 16 110 5 0 9 16 9 36 0 27 7 41 26 56 20 16 23 23 12 29 -8 5
-17 4 -23 -4 -5 -7 -20 -13 -32 -14 -13 0 -30 -1 -38 -2 -8 0 -21 -14 -30 -31
-24 -46 -35 -36 -32 31 2 65 -1 69 -49 62z"/>
<path d="M4122 6861 c-11 -6 -7 -22 18 -77 l32 -69 -7 -128 c-5 -105 -11 -137
-31 -180 l-24 -52 5 140 c2 77 1 156 -4 175 -9 34 -9 34 -10 6 -1 -33 -13 -28
-16 7 -1 15 -9 23 -24 25 -23 4 -23 3 -18 -100 10 -216 40 -345 65 -278 7 19
10 12 15 -40 9 -86 9 -120 -2 -120 -5 0 -11 12 -13 28 -2 15 -9 26 -15 25 -19
-4 -40 45 -47 107 -10 81 -17 110 -26 110 -5 0 -14 34 -21 75 -7 41 -16 75
-20 75 -4 0 -10 27 -14 60 -4 33 -11 63 -16 66 -5 3 -9 19 -9 35 0 24 -4 30
-17 27 -14 -3 -20 -18 -26 -71 -4 -42 -3 -76 3 -87 22 -41 7 -78 -19 -47 -9
11 -39 114 -45 154 -4 25 -16 25 -35 2 -24 -28 -26 -74 -6 -109 l14 -25 1 33
c0 17 5 32 10 32 15 0 12 -67 -2 -74 -10 -5 -10 -7 0 -12 6 -3 12 -11 12 -17
0 -6 6 -18 14 -26 13 -16 48 -110 60 -162 3 -15 22 -55 41 -89 19 -34 38 -73
41 -86 3 -13 12 -24 19 -24 11 0 55 -74 55 -92 0 -3 -21 13 -47 37 -32 30 -44
48 -40 59 4 10 3 15 -3 11 -6 -3 -10 -1 -10 6 0 9 -3 10 -11 2 -10 -10 -8 -17
38 -110 9 -18 23 -33 30 -33 9 0 13 -19 14 -67 1 -38 4 -81 8 -98 6 -29 7 -28
39 33 18 34 37 62 41 62 4 0 12 15 19 34 16 43 77 108 99 104 13 -2 11 -7 -10
-28 -15 -14 -27 -33 -27 -43 0 -10 -7 -20 -15 -23 -8 -4 -15 -12 -15 -20 0 -7
-9 -18 -20 -24 -14 -8 -20 -21 -20 -45 0 -19 -4 -35 -9 -35 -5 0 -15 -23 -22
-51 -7 -28 -23 -58 -35 -68 -12 -9 -24 -27 -28 -39 -4 -12 -13 -22 -20 -22 -8
0 -19 -21 -25 -47 -23 -92 -34 -118 -60 -146 -25 -27 -26 -34 -26 -135 0 -83
-4 -114 -17 -137 -12 -21 -17 -25 -18 -12 0 26 -29 20 -36 -8 -3 -14 -9 -25
-14 -25 -4 0 -17 -34 -29 -74 -11 -41 -26 -78 -31 -81 -6 -4 -7 2 -2 15 15 40
-15 281 -44 348 -8 18 -14 49 -14 68 0 20 -8 66 -19 102 -32 113 -51 204 -57
275 -4 37 -10 67 -14 67 -9 0 -19 50 -26 120 -3 25 -7 52 -10 60 -11 33 -34
167 -34 202 0 34 -5 51 -31 113 -11 26 -49 188 -49 208 0 29 -16 27 -70 -8
-38 -25 -60 -33 -77 -28 -24 5 -126 -38 -139 -58 -9 -16 -24 -10 -24 9 0 10
-3 21 -6 24 -7 8 -70 -31 -103 -63 -14 -14 -38 -29 -52 -32 -14 -4 -45 -27
-68 -52 -37 -40 -41 -50 -42 -97 l-1 -53 -11 40 c-5 22 -16 46 -24 53 -7 7
-13 18 -13 23 0 6 -20 30 -45 56 -25 25 -45 51 -45 58 0 17 -86 45 -99 32 -6
-6 -26 -1 -58 16 -27 13 -66 30 -87 35 -37 11 -38 10 -32 -13 l6 -23 -68 23
c-63 21 -112 31 -209 40 -41 3 -44 2 -67 -38 -13 -23 -27 -54 -30 -69 -4 -16
-11 -28 -16 -28 -8 0 -17 -27 -85 -250 -14 -46 -32 -91 -39 -100 -8 -8 -17
-26 -21 -40 -3 -14 -13 -38 -21 -55 -7 -16 -21 -48 -31 -70 -9 -22 -19 -43
-21 -47 -2 -5 3 -8 11 -8 31 0 30 -167 -1 -210 -11 -14 -24 -41 -31 -61 -6
-20 -19 -44 -29 -55 -9 -10 -35 -45 -56 -76 -22 -32 -47 -65 -58 -74 -10 -10
-18 -24 -18 -33 0 -9 -9 -22 -20 -29 -11 -7 -20 -18 -20 -25 0 -6 -12 -34 -25
-62 -14 -27 -25 -66 -25 -85 -1 -19 -7 -53 -15 -75 -16 -45 -20 -105 -6 -105
13 0 41 94 41 139 0 42 19 59 21 19 1 -20 2 -20 9 4 4 15 17 42 27 60 11 18
26 53 34 77 7 25 28 61 46 80 33 36 52 69 73 128 7 18 27 47 46 65 19 18 34
38 34 43 0 11 26 45 86 112 26 28 48 67 59 102 9 31 23 63 30 71 7 8 18 45 25
83 7 37 15 67 18 67 2 0 2 -39 -2 -87 -6 -66 -4 -88 6 -95 9 -6 10 -10 2 -15
-6 -5 -15 -18 -18 -31 -4 -13 -22 -36 -39 -52 -38 -35 -88 -127 -92 -172 -1
-10 -10 -30 -20 -45 -10 -15 -17 -43 -17 -63 1 -19 -2 -48 -7 -65 -8 -26 -9
-22 -10 30 -2 79 -15 100 -31 49 -7 -21 -17 -43 -22 -48 -28 -35 -53 -72 -73
-110 -13 -24 -33 -55 -45 -69 -41 -47 -132 -232 -155 -314 -4 -13 -14 -30 -23
-40 -14 -14 -17 -39 -18 -140 -2 -118 6 -153 27 -122 5 8 8 24 6 35 -2 12 4
32 14 45 18 23 19 23 20 4 2 -40 17 28 18 83 1 30 5 51 10 47 14 -8 41 24 41
49 0 12 3 26 7 30 4 3 8 16 10 28 2 12 7 26 12 32 4 6 11 31 15 56 4 25 18 68
30 95 13 28 30 77 37 110 10 47 14 54 17 32 2 -16 -1 -42 -7 -59 -6 -17 -11
-49 -11 -72 0 -43 -18 -104 -37 -127 -17 -22 -83 -220 -82 -248 1 -25 1 -24
15 8 18 40 29 35 19 -9 -4 -17 -19 -40 -35 -51 -22 -17 -28 -31 -34 -77 -3
-32 -8 -66 -11 -77 -4 -14 8 -34 40 -69 25 -26 45 -54 45 -61 0 -22 41 -105
52 -105 7 0 7 -4 -1 -14 -9 -11 -6 -16 17 -24 27 -9 30 -8 45 27 9 20 19 48
22 63 4 15 13 29 19 31 7 3 16 20 19 37 4 17 16 45 28 61 16 22 21 45 21 99 0
38 5 67 9 64 5 -3 9 -17 9 -32 l1 -27 14 25 c8 14 15 34 16 45 1 17 2 16 9 -5
20 -61 3 -123 -51 -185 -9 -11 -29 -59 -44 -107 -16 -49 -32 -88 -36 -88 -8 0
-29 -63 -29 -85 0 -11 59 -80 63 -74 6 10 30 78 38 109 5 19 14 52 20 73 5 21
14 35 19 32 10 -6 14 30 11 100 -2 36 0 38 13 22 7 -10 12 -27 9 -37 -3 -11 4
-35 16 -53 12 -19 21 -44 21 -55 0 -12 11 -29 25 -38 17 -11 27 -29 31 -55 4
-22 10 -39 14 -39 14 0 30 26 36 58 4 18 12 32 20 32 7 0 16 5 20 11 9 15 5
180 -6 217 -4 18 -5 34 0 37 11 7 23 130 15 165 -7 31 -32 41 -41 16 -5 -13
-54 -11 -54 3 0 6 38 174 44 196 2 6 6 22 10 36 10 36 37 34 29 -2 -3 -15 -1
-35 5 -45 9 -15 12 -11 21 26 6 25 20 77 31 115 11 39 20 82 20 98 0 15 5 27
10 27 6 0 10 6 10 13 1 6 7 26 15 42 14 29 15 28 9 -30 -4 -33 -7 -76 -9 -95
-5 -88 -18 -176 -29 -189 -6 -8 -13 -81 -16 -180 -6 -184 5 -334 24 -328 6 2
12 12 14 23 2 10 13 43 24 72 16 40 18 56 9 65 -6 6 -11 24 -11 39 0 32 47
175 65 198 6 8 20 34 30 57 16 39 19 41 31 25 12 -16 13 -16 19 1 4 9 13 17
21 17 8 0 14 4 14 10 0 5 13 23 30 40 16 16 34 49 41 72 6 24 14 48 18 53 12
16 69 187 77 228 7 39 40 91 53 82 5 -2 11 -51 15 -107 4 -57 11 -123 16 -148
25 -115 53 -252 67 -320 8 -41 16 -81 19 -89 6 -20 17 -6 20 26 2 16 6 57 9
92 4 35 10 83 15 105 l8 41 2 -35 c1 -33 2 -33 10 -10 12 34 32 249 25 260 -3
5 -9 31 -12 57 -3 27 -9 50 -13 53 -4 3 -9 15 -12 27 -4 16 -2 20 8 16 11 -4
14 11 14 76 0 67 2 79 15 75 8 -4 15 -17 15 -29 0 -13 5 -36 11 -52 5 -15 17
-59 25 -97 8 -39 18 -73 23 -76 22 -14 27 -44 18 -103 -5 -34 -13 -67 -18 -73
-5 -6 -14 -44 -20 -85 -6 -41 -17 -89 -25 -107 -8 -18 -14 -41 -14 -50 0 -25
-40 -142 -58 -170 -17 -26 -18 -42 -9 -312 4 -102 11 -196 16 -210 9 -25 36
-116 64 -220 13 -46 26 -170 27 -257 0 -15 5 -21 14 -17 17 6 36 48 36 77 0
13 9 40 20 62 11 22 20 49 20 62 0 12 5 25 10 28 6 3 10 15 10 26 0 36 20 19
22 -18 4 -67 -2 -108 -15 -118 -14 -11 -37 -80 -37 -112 0 -11 -9 -32 -20 -46
-11 -14 -20 -36 -20 -50 0 -13 -9 -35 -19 -49 -11 -13 -23 -41 -26 -62 -4 -20
-13 -42 -19 -49 -21 -21 -93 -161 -100 -192 -9 -43 16 -121 37 -117 10 2 20
-5 24 -15 3 -10 12 -25 19 -33 13 -16 45 -131 46 -164 0 -49 10 -85 25 -90 14
-6 15 2 10 61 -4 52 -3 61 5 41 5 -16 14 -28 19 -28 5 0 9 -24 9 -54 0 -65 16
-82 26 -29 4 21 15 49 25 63 10 14 20 42 21 63 1 21 5 40 9 43 15 9 39 113 33
142 -5 25 -3 30 20 36 31 8 43 45 25 78 -25 44 -54 246 -49 338 l5 85 9 -105
c5 -58 10 -117 10 -132 1 -15 9 -33 18 -40 9 -7 22 -33 28 -58 l12 -45 14 28
c8 15 18 27 23 27 11 0 -6 -93 -24 -127 -8 -15 -15 -40 -15 -55 0 -15 -4 -29
-9 -33 -5 -3 -12 -19 -16 -35 -4 -17 -11 -30 -16 -30 -5 0 -6 -7 0 -17 5 -10
16 -35 25 -55 8 -21 20 -38 26 -38 5 0 10 -12 10 -27 0 -16 5 -46 11 -68 l12
-40 9 30 c5 17 13 39 18 50 5 11 12 38 16 60 7 36 8 37 12 12 2 -15 -1 -51 -7
-78 -6 -28 -11 -69 -11 -93 0 -24 -6 -56 -14 -72 -25 -51 -24 -68 4 -68 22 0
26 7 42 68 9 37 19 86 22 108 5 45 26 77 26 40 0 -12 4 -22 8 -22 7 0 19 41
37 130 12 62 59 197 76 222 12 16 24 45 26 65 5 36 -21 123 -37 123 -5 0 -11
14 -15 31 -8 36 -46 98 -60 99 -6 0 -15 12 -22 28 -18 43 -56 212 -49 219 3 3
8 -3 11 -13 4 -10 11 -27 16 -36 5 -10 9 -25 9 -33 0 -8 4 -15 9 -15 7 0 53
-122 56 -150 0 -3 4 -11 8 -18 19 -30 25 7 23 146 -2 142 -10 197 -26 172 -4
-6 -10 11 -13 39 -3 27 -10 58 -15 68 -13 26 -44 116 -45 131 0 6 -4 12 -9 12
-5 0 -8 6 -6 13 4 21 -12 83 -32 125 -13 27 -20 60 -19 99 l1 58 22 -65 c51
-143 52 -145 60 -124 7 18 8 17 21 -6 8 -14 14 -34 15 -45 0 -11 9 -35 20 -53
11 -18 20 -43 20 -57 0 -26 26 -58 41 -50 5 4 9 13 9 21 0 8 11 36 25 62 23
45 30 100 18 145 -4 14 -9 10 -23 -20 -10 -21 -21 -50 -24 -65 -3 -15 -14 -34
-24 -44 -16 -17 -17 -17 -20 0 -2 10 3 25 12 35 9 10 16 20 16 24 0 3 14 29
30 57 l31 52 0 166 c1 132 -4 188 -20 269 -12 55 -21 113 -21 126 0 36 18 43
26 10 3 -15 15 -55 26 -88 21 -64 28 -105 52 -309 8 -71 17 -130 19 -132 2 -2
12 22 23 53 10 32 24 67 30 78 13 21 34 94 40 135 11 80 23 234 24 291 0 41 5
72 15 85 8 10 15 25 15 32 0 19 81 123 94 120 27 -5 56 27 56 62 0 43 43 110
69 110 16 0 20 12 27 93 5 50 8 104 9 119 0 14 3 30 8 34 4 4 7 -4 7 -19 0
-14 7 -58 15 -99 12 -54 13 -79 5 -98 -7 -16 -7 -41 -2 -65 7 -33 12 -40 32
-40 23 -1 25 -4 22 -39 -2 -26 2 -42 13 -50 14 -10 14 -19 5 -61 -6 -27 -21
-59 -34 -71 -29 -30 -98 -161 -94 -180 2 -11 16 -3 48 25 85 76 78 71 84 55 3
-8 -1 -34 -8 -57 -8 -23 -16 -62 -20 -87 -3 -25 -8 -58 -12 -74 -6 -25 -4 -28
10 -23 11 5 16 1 16 -14 0 -11 5 -17 10 -14 6 3 10 15 10 26 0 10 -4 19 -10
19 -17 0 -11 25 15 60 14 19 25 40 25 48 0 7 8 21 17 30 16 16 16 16 11 -5 -8
-31 6 -29 20 2 6 14 15 25 20 25 5 0 17 20 28 45 10 25 21 45 25 45 6 0 14 67
19 160 2 28 -12 80 -21 80 -5 0 -9 9 -9 20 0 10 -7 23 -16 28 -14 8 -14 13 1
58 9 27 21 52 27 55 16 10 16 161 0 167 -7 2 -12 14 -12 26 0 13 -9 31 -20 41
-14 13 -19 14 -15 4 2 -8 1 -27 -4 -44 -9 -28 -9 -29 -10 -5 -2 42 -17 56 -25
24 -11 -42 4 -226 20 -251 10 -17 12 -36 6 -75 l-8 -53 -13 55 c-7 30 -19 60
-26 65 -17 14 -28 110 -27 225 2 168 6 219 19 225 16 5 18 115 3 115 -5 0 -10
-6 -10 -14 0 -8 -6 -16 -14 -19 -12 -5 -12 -2 0 21 8 15 14 33 14 40 0 6 5 12
10 12 6 0 10 9 10 21 0 11 4 18 9 15 4 -3 9 -35 9 -72 1 -37 4 -69 7 -72 3 -3
5 11 5 31 0 21 4 37 9 37 11 0 20 33 26 102 l5 53 -21 -38 c-11 -22 -23 -36
-26 -33 -3 3 -1 11 5 18 5 7 18 36 27 64 9 29 24 60 34 70 13 15 30 76 44 159
1 5 -15 8 -37 6 -37 -3 -38 -2 -32 24 7 26 6 26 -21 11 -37 -20 -63 -41 -63
-51 0 -12 -99 -109 -106 -103 -3 4 11 21 30 39 20 18 36 42 36 53 1 23 21 64
33 65 4 1 12 1 17 1 6 0 10 5 10 11 0 6 -9 8 -20 4 -11 -3 -20 -3 -20 2 0 21
22 83 29 83 13 0 28 48 42 135 6 44 18 92 25 106 16 32 12 245 -5 262 -20 20
-29 -6 -35 -98 -7 -113 -15 -155 -31 -155 -12 0 -25 63 -25 121 0 23 -44 139
-53 139 -1 0 -8 -4 -15 -9z"/>
<path d="M1444 6726 c-18 -28 -44 -119 -44 -156 0 -31 -30 -110 -41 -110 -5 0
-9 -6 -9 -13 0 -7 -9 -18 -20 -25 -17 -10 -20 -23 -20 -77 0 -79 16 -92 61
-49 16 15 29 32 29 37 0 5 9 20 20 34 21 27 19 46 -5 36 -19 -7 -20 19 -1 55
8 15 22 63 31 107 9 44 20 84 25 90 7 9 14 53 11 83 -2 20 -19 14 -37 -12z"/>
<path d="M4343 6663 c4 -32 10 -76 13 -97 5 -28 4 -37 -4 -32 -7 4 -12 19 -12
32 0 16 -5 24 -12 22 -7 -3 -19 -40 -26 -84 -7 -45 -24 -97 -38 -121 -29 -50
-32 -86 -6 -81 9 2 22 13 27 26 6 13 20 25 33 29 13 3 22 13 23 27 2 26 6 79
8 87 1 4 9 9 20 12 29 7 35 65 14 152 -10 43 -23 77 -31 80 -12 5 -14 -4 -9
-52z"/>
<path d="M3743 6595 c3 -6 2 -17 -3 -25 -5 -8 -3 -18 5 -26 7 -8 11 -23 8 -34
-6 -23 -19 -16 -25 14 -4 22 -28 34 -28 14 0 -7 6 -25 14 -40 8 -14 19 -42 26
-61 6 -21 16 -34 23 -31 7 2 21 -11 31 -31 11 -19 23 -35 28 -35 4 0 8 -5 8
-11 0 -7 8 -18 17 -25 10 -7 15 -16 11 -20 -8 -8 -48 29 -66 61 -11 19 -11 19
-12 -3 0 -13 15 -36 36 -56 37 -35 74 -44 74 -17 0 25 -24 86 -37 94 -7 4 -13
14 -13 22 0 7 -6 20 -14 27 -25 25 -53 92 -54 127 0 19 -8 41 -18 50 -9 9 -14
11 -11 6z"/>
<path d="M9937 4858 c-4 -14 -10 -70 -13 -124 -3 -55 -10 -126 -16 -159 -5
-33 -9 -70 -10 -82 0 -22 -28 -34 -28 -13 0 21 -30 9 -61 -25 -19 -19 -39 -35
-46 -35 -21 0 -15 -38 7 -50 33 -18 25 -47 -14 -54 -19 -4 -65 -22 -103 -40
-37 -19 -88 -36 -112 -39 -64 -8 -97 -36 -93 -80 l3 -34 -51 -5 c-93 -9 -81
-31 21 -36 67 -4 72 -6 90 -36 24 -40 24 -40 -12 -53 -21 -8 -30 -17 -27 -30
3 -17 37 -28 149 -47 l35 -6 32 -268 c18 -147 37 -296 42 -332 5 -36 14 -110
20 -165 6 -55 16 -129 23 -165 15 -84 14 -557 -2 -682 -6 -51 -16 -124 -21
-163 -5 -38 -14 -108 -20 -155 -5 -47 -19 -159 -30 -250 -11 -91 -25 -208 -30
-260 -6 -52 -13 -111 -16 -130 -18 -146 -25 -206 -34 -283 -6 -49 -12 -103
-15 -120 -2 -18 -9 -72 -16 -120 -9 -72 -18 -98 -45 -140 -37 -56 -42 -77 -19
-77 8 0 15 -4 15 -10 0 -5 -7 -10 -15 -10 -20 0 -19 -6 6 -46 22 -36 21 -53
-22 -399 -18 -140 -20 -130 28 -133 40 -3 42 -2 48 30 6 38 55 424 55 438 0 6
46 10 110 10 l110 0 0 -240 0 -241 83 3 82 3 3 68 3 67 34 0 c38 0 59 25 53
63 -2 18 -10 23 -45 25 l-43 3 0 125 0 124 90 0 c98 0 95 2 103 -62 l6 -37
-42 -3 -42 -3 -3 -165 c-1 -91 0 -175 3 -186 l5 -21 2987 1 2988 1 3 528 2
527 -50 0 -50 0 0 44 0 44 -90 52 c-50 28 -95 60 -100 71 -9 16 -22 19 -95 19
-73 0 -87 -3 -104 -21 -11 -12 -55 -42 -98 -68 -76 -46 -78 -48 -83 -92 l-5
-44 -42 0 c-46 -1 -53 -5 -57 -32 -3 -16 -16 -18 -159 -21 l-157 -3 0 670 c0
655 0 670 -19 676 -15 4 -21 17 -23 48 l-3 42 -102 3 -103 3 0 80 0 80 -47 -3
c-44 -3 -48 -5 -51 -30 -3 -25 -7 -28 -43 -28 -37 0 -39 2 -39 30 0 25 -4 30
-25 30 l-25 0 0 -100 0 -100 -65 0 c-59 0 -65 2 -65 21 0 15 -5 20 -22 17 -22
-3 -23 -8 -26 -112 -2 -98 -5 -109 -22 -113 -20 -5 -20 -17 -20 -624 l0 -619
-50 0 -50 0 -2 713 -3 712 -42 3 -42 3 -3 57 -3 57 -150 0 -150 0 -3 -57 -3
-57 -42 -3 -42 -3 -3 -72 -3 -72 -52 -3 -52 -3 0 -577 0 -577 -40 39 c-38 37
-45 40 -98 40 l-57 0 0 -394 c0 -253 -4 -397 -10 -401 -7 -4 -10 302 -10 910
0 908 0 917 -20 922 -18 5 -20 14 -20 89 0 49 -4 84 -10 84 -6 0 -10 79 -10
218 0 121 -4 222 -9 228 -5 5 -11 25 -13 44 -3 38 0 37 -88 25 -44 -7 -45 -6
-60 28 -8 20 -51 66 -97 106 -76 66 -82 75 -85 114 -3 40 -5 42 -37 45 -39 4
-51 -9 -51 -55 0 -27 -11 -42 -85 -104 -56 -48 -89 -84 -97 -107 -12 -32 -14
-33 -53 -28 -91 14 -90 14 -93 -24 -2 -19 -8 -39 -13 -44 -5 -6 -9 -106 -9
-224 0 -166 -3 -216 -14 -227 -10 -10 -12 -34 -8 -89 4 -66 2 -76 -12 -76 -9
0 -16 -6 -16 -12 0 -7 -2 -294 -4 -638 -3 -344 -5 -752 -5 -907 l-1 -283 -95
0 -95 0 -2 1078 -3 1077 -355 0 -355 0 -3 -382 -2 -382 -35 -7 c-19 -3 -45 -4
-58 0 -12 3 -33 3 -45 -1 -19 -5 -22 -12 -22 -54 0 -55 -14 -72 -26 -31 -4 15
-9 460 -11 989 l-4 962 -32 3 c-29 3 -32 7 -37 43 l-5 40 -375 0 -375 0 -3
-39 c-2 -28 -9 -40 -23 -43 -19 -5 -19 -26 -15 -1397 2 -765 7 -1413 11 -1439
5 -32 3 -53 -4 -60 -7 -7 -11 -71 -11 -184 l0 -173 -109 0 -110 0 -7 46 c-3
25 -3 49 2 53 10 7 64 88 64 96 0 3 -7 5 -15 5 -19 0 -19 10 1 24 14 11 13 17
-12 59 -21 34 -35 47 -51 47 -13 0 -23 3 -23 7 0 3 -13 112 -30 242 -16 130
-45 369 -65 531 -20 162 -54 440 -75 617 -36 286 -40 346 -40 543 0 216 8 309
65 735 3 22 10 76 15 120 28 234 51 390 57 395 5 4 52 14 107 24 113 19 116
20 116 47 0 14 -9 21 -30 26 -40 8 -45 17 -23 53 16 28 22 30 73 30 67 0 102
9 97 24 -2 6 -23 12 -48 14 -63 4 -64 5 -64 48 0 34 -4 41 -35 56 -19 9 -52
17 -73 18 -23 0 -52 10 -74 24 -20 14 -62 33 -94 42 -47 14 -59 22 -59 38 0
12 9 27 20 34 24 15 26 42 4 42 -9 0 -32 18 -51 40 -37 42 -72 53 -74 23 -3
-46 -28 126 -34 237 -4 69 -11 134 -15 144 -6 18 -7 17 -13 -6z m-79 -1290 c2
-277 0 -328 -12 -328 -10 0 -17 23 -25 83 -12 87 -71 565 -71 573 0 3 24 4 53
2 l52 -3 3 -327z m252 327 c0 -2 -7 -53 -15 -112 -8 -59 -17 -133 -21 -163 -3
-30 -14 -116 -24 -190 l-17 -135 -2 296 c0 163 2 299 6 302 7 8 73 10 73 2z
m-254 -2492 c-2 -2 -26 -3 -53 -1 l-49 3 28 230 c14 127 34 295 43 374 9 79
20 151 23 160 4 9 8 -159 10 -373 1 -214 0 -391 -2 -393z m295 -383 c19 -162
34 -298 32 -302 -2 -5 -17 -8 -34 -8 -25 0 -29 4 -29 29 0 50 -9 61 -51 61
l-39 0 0 105 0 105 45 0 45 0 0 45 0 45 -45 0 -45 0 0 104 c0 113 2 116 60
113 l24 -2 37 -295z m-291 -10 l0 -300 -96 0 -97 0 7 48 c7 51 66 538 66 547
0 3 27 5 60 5 l60 0 0 -300z"/>
<path d="M1604 4708 c-4 -13 -7 -30 -5 -40 1 -9 -8 -23 -20 -31 -19 -14 -20
-17 -7 -31 9 -8 23 -48 33 -89 14 -59 15 -79 5 -96 -6 -12 -13 -32 -16 -44 -2
-12 -11 -27 -20 -34 -10 -8 -19 -36 -24 -80 -5 -37 -11 -84 -15 -103 -6 -32
-5 -34 9 -16 8 10 28 25 43 33 19 9 24 10 16 2 -7 -7 -13 -21 -13 -31 0 -9 -9
-22 -19 -27 -36 -20 -61 -91 -68 -195 -7 -112 4 -125 41 -46 13 28 30 58 39
68 8 9 17 28 20 42 4 25 4 24 6 -2 0 -18 7 -28 16 -28 11 0 15 11 15 40 0 31
5 43 25 56 14 9 25 25 25 35 0 10 5 21 10 24 6 3 10 16 10 29 0 12 4 26 9 32
5 5 14 26 20 46 7 20 19 42 27 48 18 16 19 60 0 60 -8 0 -18 -12 -24 -27 -8
-27 -9 -25 -22 27 -16 70 -17 72 -40 58 -10 -7 -30 -48 -46 -95 -15 -46 -33
-83 -40 -83 -9 0 -5 19 13 63 13 34 29 75 34 92 5 16 19 37 31 47 l22 16 -21
44 c-11 24 -24 53 -27 65 -5 14 -12 20 -21 17 -11 -5 -14 4 -13 40 0 26 4 49
9 52 12 7 11 84 0 84 -5 0 -13 -10 -17 -22z"/>
<path d="M2006 4398 c-3 -7 -7 -31 -11 -52 -4 -22 -13 -49 -21 -60 -17 -24
-18 -72 -3 -82 7 -4 9 -24 6 -55 -3 -27 -2 -51 3 -54 4 -3 2 -18 -6 -34 -15
-30 -10 -61 10 -61 6 0 27 21 46 46 19 25 42 53 52 61 11 11 15 26 11 49 -3
20 0 40 7 49 7 9 10 18 7 21 -7 7 -28 -12 -45 -41 -6 -11 -12 -15 -12 -9 0 6
9 23 20 37 24 30 24 37 6 74 -8 15 -22 47 -32 71 -19 47 -32 60 -38 40z"/>
<path d="M1780 4148 c-17 -35 -44 -88 -60 -118 -15 -30 -31 -67 -35 -82 -4
-16 -10 -28 -15 -28 -4 0 -13 -13 -20 -30 -7 -17 -20 -30 -29 -30 -19 0 -52
-32 -71 -69 -7 -13 -15 -19 -19 -13 -3 6 -17 -5 -31 -24 -14 -18 -30 -34 -37
-34 -7 0 -17 -8 -22 -17 -8 -14 -12 -15 -19 -5 -12 17 -27 -1 -36 -43 -7 -32
-39 -76 -53 -74 -22 4 -34 -5 -68 -52 -28 -40 -39 -49 -46 -38 -7 11 -9 10 -9
-3 0 -10 -4 -18 -9 -18 -5 0 -14 -13 -21 -30 -7 -16 -18 -30 -24 -30 -19 0
-46 -53 -36 -71 17 -29 -14 -100 -58 -137 -34 -28 -42 -31 -42 -17 0 33 -27
-3 -40 -53 -6 -26 -23 -71 -37 -100 -25 -52 -26 -60 -27 -245 0 -173 1 -195
19 -224 11 -18 23 -33 27 -33 17 0 29 56 29 139 0 47 1 102 3 121 2 19 4 55 4
79 2 37 4 42 17 31 19 -15 35 -5 35 24 0 12 3 26 7 30 11 10 31 93 39 158 3
31 11 56 17 55 6 -1 16 8 22 21 7 13 22 32 34 43 11 11 21 28 21 37 0 10 7 27
15 38 8 10 15 27 15 36 0 9 4 19 9 23 6 3 7 -9 4 -30 -4 -23 -2 -35 6 -35 6 0
11 7 11 15 0 8 5 15 10 15 16 0 12 -14 -18 -50 -27 -33 -52 -113 -67 -212 -3
-21 -10 -38 -15 -38 -5 0 -12 -17 -16 -37 -4 -21 -12 -49 -18 -63 -13 -28 -10
-110 4 -110 5 0 12 9 15 20 3 11 11 20 16 20 5 0 19 16 31 37 29 47 34 29 9
-30 -11 -25 -17 -55 -14 -66 3 -13 -6 -35 -26 -63 -17 -23 -31 -50 -31 -60 0
-10 -7 -21 -15 -24 -9 -4 -15 -19 -15 -42 0 -19 -3 -32 -6 -29 -12 12 -41 -38
-49 -83 -4 -25 -15 -72 -26 -104 -10 -33 -19 -71 -19 -86 0 -14 -5 -31 -12
-38 -9 -9 -9 -15 0 -24 7 -7 12 -43 12 -91 0 -67 2 -78 14 -68 8 6 20 26 27
44 7 18 18 37 24 43 6 6 28 37 50 70 22 32 46 65 52 72 7 7 16 25 19 40 3 15
10 37 15 50 6 14 5 38 -3 67 -10 38 -9 52 5 92 9 27 17 59 17 73 0 14 7 38 15
54 8 15 15 34 15 41 0 7 7 16 16 19 13 5 15 2 10 -16 -4 -13 -13 -52 -21 -88
-7 -36 -18 -81 -24 -100 -17 -54 -13 -68 9 -35 25 37 70 131 70 148 0 7 9 23
20 37 l20 25 0 -27 c0 -16 5 -28 10 -28 13 0 13 -53 1 -65 -9 -10 -31 -112
-31 -146 0 -34 40 -7 81 53 22 33 47 62 54 64 7 3 15 14 18 25 6 20 -3 18 -37
-10 -19 -16 -19 -15 -1 17 11 17 23 32 27 32 4 0 8 20 8 45 0 41 19 108 57
197 13 30 13 40 3 53 -15 18 2 47 57 105 19 19 37 47 40 62 5 28 23 49 23 29
0 -26 22 -7 45 40 16 31 27 71 29 103 1 29 6 58 10 65 5 8 1 14 -13 18 -12 3
-21 8 -21 11 0 3 12 44 26 90 24 80 45 118 57 106 10 -10 57 71 57 97 0 35 44
150 48 127 5 -25 25 -4 42 44 15 41 5 91 -10 52 -5 -12 -14 -25 -21 -29 -9 -6
-10 5 -5 46 4 31 3 66 -3 79 -10 24 -10 25 -10 3 -1 -13 -7 -23 -13 -24 -7 0
-21 -2 -30 -4 -14 -3 -15 1 -7 22 20 54 18 204 -2 171 -6 -9 -9 -3 -9 19 0 54
-19 47 -50 -19z m-149 -544 c7 -9 4 -14 -10 -19 -11 -3 -25 -22 -32 -43 -6
-20 -18 -41 -25 -45 -8 -4 -14 -19 -14 -33 0 -13 -9 -41 -20 -61 -11 -21 -20
-43 -20 -49 0 -15 -39 -64 -51 -64 -13 0 -11 36 4 52 12 13 39 81 57 143 5 17
12 41 16 54 7 22 6 23 -17 11 l-24 -13 20 22 c11 13 32 30 46 38 19 11 32 31
40 62 l13 46 4 -45 c2 -24 8 -50 13 -56z"/>
<path d="M6073 3685 c-44 -54 -53 -71 -53 -105 0 -22 4 -40 9 -40 5 0 25 19
45 43 l36 42 0 -142 c0 -80 -4 -143 -9 -143 -5 0 -11 5 -13 12 -3 7 -37 13
-91 16 -76 4 -87 7 -87 23 0 10 -4 20 -8 23 -12 7 -573 58 -579 52 -3 -3 -5
-52 -4 -110 2 -105 2 -105 -24 -112 l-25 -6 0 -619 0 -619 -85 0 c-82 0 -86
-1 -95 -25 -7 -18 -17 -25 -35 -25 l-25 0 0 -435 0 -435 -50 0 c-33 0 -50 -4
-50 -12 0 -7 -2 -186 -3 -398 l-2 -385 -22 -3 -23 -3 0 465 0 466 -80 0 -80 0
0 185 c0 179 -1 185 -20 185 -11 0 -23 7 -26 15 -4 8 -14 15 -24 15 -13 0 -20
9 -22 28 -3 27 -4 27 -81 30 l-78 3 6 -123 c4 -68 2 -134 -3 -147 -8 -23 -14
-25 -64 -22 -31 1 -59 -2 -62 -8 -4 -6 -8 -144 -9 -308 l-2 -298 -52 -3 -52
-3 -3 38 c-3 32 -7 38 -28 41 l-25 3 2 412 c1 227 4 428 7 447 9 65 7 943 -2
952 -8 8 -696 11 -881 4 -27 -1 -34 3 -36 19 -1 11 -6 43 -12 70 -6 28 -17 77
-24 110 -6 33 -18 69 -25 81 -7 12 -14 36 -16 54 -3 32 -4 33 -21 16 -9 -10
-17 -28 -17 -40 0 -13 -7 -37 -16 -55 -13 -25 -15 -56 -13 -143 l4 -111 -54
-1 c-40 -1 -56 -6 -65 -19 -9 -15 -7 -22 14 -39 l24 -20 9 -1106 c4 -608 5
-1112 3 -1119 -3 -7 -17 -13 -31 -13 l-25 0 0 514 c0 459 -2 515 -16 520 -23
9 -987 7 -999 -2 -6 -4 -10 -190 -10 -522 l0 -515 -32 0 -33 0 0 458 0 457
-232 -2 -233 -3 0 -225 0 -225 -35 -3 c-19 -2 -108 -1 -197 3 l-163 7 0 283
c0 156 -3 286 -7 288 -5 3 -158 8 -340 12 l-333 7 -2 -298 -3 -299 -127 -3
-127 -3 -42 -47 c-70 -78 -69 -75 -69 -424 l0 -313 4738 0 4737 0 3 232 2 232
-62 3 -63 3 -3 225 c-2 159 1 233 10 254 9 23 9 31 0 34 -10 3 -12 233 -12
1020 0 560 0 1022 0 1029 0 6 -14 14 -30 18 -17 4 -28 10 -25 15 10 16 -23 38
-50 32 -15 -2 -37 1 -51 8 -18 10 -30 11 -49 2 -36 -16 -80 -15 -95 3 -9 10
-31 15 -72 15 -39 0 -64 -5 -74 -15 -17 -17 -54 -20 -54 -5 0 6 -11 10 -24 10
-14 0 -28 -4 -31 -10 -3 -5 -24 -10 -45 -10 -32 0 -39 -4 -42 -22 -3 -21 -9
-23 -56 -23 -40 0 -56 -4 -63 -17 -8 -15 -24 -18 -84 -18 l-75 0 0 -980 0
-980 -50 0 -50 0 0 669 c0 436 -3 672 -10 676 -6 4 -10 60 -10 136 0 71 -4
137 -9 147 -5 9 -12 25 -15 35 -3 10 -15 17 -31 17 -25 0 -25 1 -25 75 l0 75
-33 0 c-28 0 -41 9 -83 57 -27 31 -51 68 -54 82 -6 31 -26 38 -35 12 -3 -12
-15 -21 -25 -21 -15 0 -20 9 -22 40 -4 51 -21 53 -28 4 -6 -42 -25 -56 -35
-25 -8 27 -22 27 -30 1 -3 -11 -15 -20 -25 -20 -15 0 -20 9 -22 40 -4 53 -22
52 -26 -2 -3 -35 -13 -53 -58 -105 -46 -52 -60 -62 -92 -65 l-37 -3 -5 -70
c-5 -63 -7 -70 -27 -73 -17 -3 -23 -10 -23 -28 0 -13 -4 -24 -10 -24 -5 0 -11
-45 -12 -101 l-3 -101 -102 0 c-107 1 -131 -8 -97 -37 19 -16 19 -33 10 -666
-4 -357 -7 -693 -6 -746 1 -79 -1 -97 -14 -102 -14 -6 -16 44 -16 503 l0 510
-59 0 c-54 0 -60 2 -63 23 -2 16 -10 22 -28 22 -19 0 -27 7 -36 33 -6 19 -15
37 -21 40 -5 4 -12 15 -16 25 -4 12 -17 17 -42 17 l-35 0 0 65 c0 51 -3 65
-15 65 -11 0 -15 -13 -16 -50 -2 -73 -3 -75 -24 -72 -11 2 -28 4 -37 5 -16 1
-18 17 -18 181 0 154 2 180 16 191 12 8 15 20 10 38 -6 27 -7 27 -101 27 l-94
0 -3 33 -3 32 -145 0 -145 0 -3 -32 -3 -32 -92 -3 -92 -3 -3 -29 c-2 -16 2
-32 10 -37 10 -7 14 -108 17 -514 l3 -505 -21 0 -21 0 -2 882 -3 882 -41 8
-41 9 -7 67 c-3 37 -6 149 -6 250 0 100 -3 182 -7 182 -5 0 -32 -30 -60 -65z"/>
<path d="M1717 3167 c-4 -10 -7 -36 -7 -58 0 -22 -5 -39 -11 -39 -6 0 -9 -7
-5 -15 3 -8 1 -15 -4 -15 -6 0 -10 5 -10 10 0 6 -5 10 -11 10 -14 0 -42 -69
-36 -92 3 -10 -1 -31 -9 -46 -8 -15 -14 -32 -14 -39 0 -6 -11 -20 -25 -31 -28
-22 -33 -42 -10 -42 8 0 15 5 15 10 0 6 8 10 18 10 32 0 91 68 107 124 16 59
25 170 16 206 -6 22 -8 23 -14 7z"/>
<path d="M2816 3150 c-10 -29 -9 -45 2 -85 7 -22 12 -67 12 -100 0 -54 7 -73
70 -198 38 -76 69 -145 68 -155 -3 -33 2 -52 13 -52 7 0 9 12 5 33 -3 17 -14
88 -24 156 -14 87 -24 128 -36 136 -9 7 -16 20 -16 29 0 9 -4 16 -9 16 -8 0
-23 49 -37 119 -9 51 -42 118 -48 101z"/>
<path d="M1440 2470 c-6 -11 -16 -20 -23 -20 -7 0 -18 -9 -25 -20 -7 -11 -18
-20 -25 -20 -24 0 -57 -45 -71 -96 -7 -27 -17 -57 -21 -68 -7 -15 -5 -17 12
-12 17 5 20 2 18 -18 -2 -13 -11 -35 -20 -49 -9 -14 -15 -34 -13 -44 4 -19 3
-21 58 105 13 28 26 52 29 52 3 0 11 10 17 23 36 72 78 139 89 143 7 3 15 14
18 25 7 26 -29 26 -43 -1z"/>
<path d="M1101 2191 c-17 -21 -31 -46 -31 -55 0 -9 -4 -16 -8 -16 -5 0 -19
-14 -32 -32 -21 -29 -23 -41 -22 -151 0 -109 4 -138 16 -126 5 5 14 66 15 102
1 9 7 17 14 17 6 0 20 28 30 63 11 34 25 77 33 95 15 34 31 142 21 142 -3 0
-19 -18 -36 -39z"/>
<path d="M1270 2075 c0 -8 -3 -15 -8 -15 -22 0 -67 -129 -58 -171 3 -16 1 -29
-4 -29 -4 0 -10 7 -12 16 -6 29 -48 -22 -48 -59 0 -18 -9 -50 -21 -71 -19 -36
-20 -45 -9 -147 6 -60 14 -124 17 -142 7 -31 7 -31 14 -7 4 14 7 46 8 73 1 26
5 47 10 47 5 0 11 22 15 48 3 27 9 52 13 56 17 16 33 86 33 144 0 44 4 62 13
62 24 0 50 59 44 101 -3 21 -1 54 3 74 4 20 4 35 -1 35 -5 0 -9 -7 -9 -15z"/>
<path d="M17706 2074 c-3 -9 -6 -24 -6 -34 0 -17 -9 -20 -72 -22 l-73 -3 0
-1005 0 -1005 410 0 410 0 0 190 0 190 -97 3 -98 3 0 810 c0 709 -2 810 -15
815 -8 4 -12 10 -9 16 3 5 3 20 0 34 l-6 24 -219 0 c-190 0 -220 -2 -225 -16z"/>
<path d="M16750 1736 c-66 -12 -130 -35 -130 -48 0 -3 -16 -16 -35 -28 -34
-21 -34 -22 -37 -98 l-3 -77 -30 0 c-23 0 -31 5 -33 21 -4 25 -35 34 -121 34
-62 0 -86 -10 -86 -37 0 -14 -8 -18 -35 -19 -19 0 -41 -1 -47 -2 -10 -2 -13
-120 -13 -552 0 -543 0 -550 -20 -550 -19 0 -20 -7 -20 -190 l0 -190 673 2
672 3 0 175 0 175 -52 3 -53 3 0 639 0 638 -35 22 c-19 12 -35 25 -35 28 0 13
-56 32 -134 47 -93 18 -331 18 -426 1z"/>
<path d="M18680 1345 l0 -204 -132 -3 -133 -3 -3 -567 -2 -567 740 -1 740 0 0
400 c0 374 -1 400 -17 400 -48 1 -48 1 -53 322 l-5 303 -132 3 -132 3 -3 57
-3 57 -432 3 -433 2 0 -205z"/>
</g>
</svg>
